Coordinates
version=1
nRows=16
nColumns=40
inDegrees=yes

Units are S.I. units (second, meters, Newtons, ...)
Angles are in degrees.

endheader
time	pelvis_tilt	pelvis_list	pelvis_rotation	pelvis_tx	pelvis_ty	pelvis_tz	hip_flexion_r	hip_adduction_r	hip_rotation_r	knee_angle_r	knee_angle_r_beta	ankle_angle_r	subtalar_angle_r	mtp_angle_r	hip_flexion_l	hip_adduction_l	hip_rotation_l	knee_angle_l	knee_angle_l_beta	ankle_angle_l	subtalar_angle_l	mtp_angle_l	lumbar_extension	lumbar_bending	lumbar_rotation	arm_flex_r	arm_add_r	arm_rot_r	elbow_flex_r	pro_sup_r	wrist_flex_r	wrist_dev_r	arm_flex_l	arm_add_l	arm_rot_l	elbow_flex_l	pro_sup_l	wrist_flex_l	wrist_dev_l
     14.82242857	     -4.10626661	     -5.62644099	      5.52045660	      0.87664928	      0.91503890	      0.47907625	     -3.39728097	      5.47650334	    -17.56987556	      9.21999095	      9.21999095	     18.67811926	      4.87457331	     -3.06241012	     31.87098489	     -7.65783564	     -2.95901789	     20.70190125	     20.70190125	      1.81842717	    -11.49889633	      6.66998938	     -6.99116556	      6.81253692	      3.95278447	     46.16272085	    -18.19962595	    -10.28137529	     76.10979945	     44.88178559	      0.00000000	      0.00000000	    -12.60340816	     -8.39967241	      3.23858381	     22.07676471	     45.05682270	      0.00000000	      0.00000000
     14.83485714	     -4.14153244	     -5.45095201	      5.37749176	      0.87776608	      0.91397467	      0.47709109	     -3.93734453	      5.15949868	    -17.36381440	      9.33121764	      9.33121764	     19.05389124	      4.84314695	     -3.09440931	     31.64022407	     -7.49683540	     -3.24059594	     21.49233182	     21.49233182	      1.69087179	    -12.04893237	      6.53612931	     -6.81803042	      6.56361362	      3.92689778	     45.93790474	    -18.20926586	    -10.31798914	     76.14942283	     44.88214754	      0.00000000	      0.00000000	    -12.81029406	     -8.36248888	      3.24356166	     22.01327904	     45.05388451	      0.00000000	      0.00000000
     14.84728571	     -4.08724155	     -5.26120254	      5.21716453	      0.87886992	      0.91299024	      0.47504043	     -4.43341994	      4.77627327	    -17.06916708	      9.72556005	      9.72556005	     19.38377006	      4.67479562	     -3.05052831	     31.55099328	     -7.30322296	     -3.17298636	     22.72229225	     22.72229225	      1.69406005	    -13.00591514	      6.20690706	     -6.80757431	      6.26633244	      3.87262804	     45.53792771	    -18.09711251	    -10.36396348	     76.30526212	     44.87923190	      0.00000000	      0.00000000	    -12.88895937	     -8.38068076	      3.24227801	     22.00457032	     45.05644538	      0.00000000	      0.00000000
     14.85971429	     -4.27303567	     -5.17822634	      5.03581600	      0.87961925	      0.91178617	      0.47286627	     -4.31548956	      4.41334408	    -16.51162039	     10.73882914	     10.73882914	     19.99521688	      3.83525728	     -2.59042137	     31.70778095	     -7.06132295	     -2.57794973	     23.79242322	     23.79242322	      1.41787394	    -14.63050447	      5.70863364	     -6.57672303	      6.11352271	      3.94212923	     44.84341613	    -18.05225496	    -10.72883457	     77.24121442	     44.86955640	      0.00000000	      0.00000000	    -12.79569875	     -8.31501126	      3.23239365	     22.15483275	     45.07861099	      0.00000000	      0.00000000
     14.87214286	     -4.11576474	     -4.95769024	      4.84778793	      0.88073863	      0.91149258	      0.47052107	     -4.86426445	      3.96200088	    -16.24980868	     11.21114319	     11.21114319	     20.18765624	      3.63267322	     -2.54292857	     31.40143544	     -6.82956094	     -2.52546956	     24.81835217	     24.81835217	      1.74590249	    -15.32848250	      5.40898945	     -6.70346708	      5.81802805	      3.87656773	     44.21125139	    -17.93323261	    -10.76327665	     77.25854907	     44.87030111	      0.00000000	      0.00000000	    -12.58108899	     -8.28674532	      3.23999152	     22.21064005	     45.08616231	      0.00000000	      0.00000000
     14.88457143	     -3.98150739	     -4.75909849	      4.69119004	      0.88178371	      0.91147268	      0.46790832	     -5.31305181	      3.48714316	    -15.97617322	     11.80571562	     11.80571562	     20.28172445	      3.42115174	     -2.55650939	     31.09706417	     -6.56438394	     -2.36175562	     25.75867769	     25.75867769	      2.17407222	    -15.92695494	      5.14919382	     -6.79183045	      5.63420943	      3.78694400	     43.46024886	    -17.71839947	    -10.73983233	     77.17978419	     44.87050118	      0.00000000	      0.00000000	    -12.21849919	     -8.13221102	      3.26211563	     22.32915349	     45.09171138	      0.00000000	      0.00000000
     14.89700000	     -4.03584329	     -4.59410685	      4.45866750	      0.88236017	      0.91128653	      0.46518843	     -4.94692449	      2.86378827	    -15.49764000	     13.51469158	     13.51469158	     20.57350487	      2.54158965	     -2.65756412	     31.08054037	     -6.28658439	     -2.12325299	     26.80221936	     26.80221936	      2.74278328	    -16.73768218	      5.32541815	     -6.75291204	      5.51932688	      3.96342841	     42.55092759	    -17.83009326	    -11.04883108	     77.44904161	     44.87614872	      0.00000000	      0.00000000	    -11.62475758	     -8.08483061	      3.26410104	     22.39255934	     45.11704543	      0.00000000	      0.00000000
     14.90942857	     -3.82716143	     -4.47851157	      4.32048461	      0.88349614	      0.91208419	      0.46225139	     -5.39514069	      2.43550457	    -15.30328191	     14.20239354	     14.20239354	     20.39366037	      2.39021585	     -2.68360227	     30.53033332	     -6.05913818	     -1.97446863	     27.43290430	     27.43290430	      3.41510322	    -17.11740832	      5.14985230	     -6.90177330	      5.46129096	      3.78925157	     41.47215642	    -17.50995185	    -10.97449560	     77.21013191	     44.87819334	      0.00000000	      0.00000000	    -11.07068813	     -7.89927367	      3.29405569	     22.56497569	     45.12439793	      0.00000000	      0.00000000
     14.92185714	     -3.84891465	     -4.20359843	      4.05949170	      0.88418654	      0.91264226	      0.45916773	     -4.85127634	      1.57059274	    -14.97451845	     16.30871159	     16.30871159	     20.40300505	      1.69261210	     -3.24434899	     30.21989073	     -5.67765817	     -2.03157104	     28.08541522	     28.08541522	      4.40382015	    -17.43738423	      5.94932586	     -6.86506651	      5.25144558	      4.10716047	     40.12790236	    -17.71663925	    -11.34473905	     77.10083879	     44.89797064	      0.00000000	      0.00000000	    -10.20093948	     -7.87722208	      3.29331412	     22.61332938	     45.15795155	      0.00000000	      0.00000000
     14.93428571	     -3.78655049	     -4.01135978	      3.87819110	      0.88502949	      0.91378613	      0.45591443	     -4.63105958	      0.85402807	    -14.82151500	     17.87823558	     17.87823558	     19.68718634	      1.20901043	     -4.89682599	     29.80195786	     -5.30277700	     -1.91837643	     28.74301422	     28.74301422	      6.30213097	    -17.43116463	      9.02812942	     -6.90483054	      5.15936257	      4.59320574	     38.21645552	    -17.87508246	    -12.28478936	     77.51204024	     44.94496144	      0.00000000	      0.00000000	     -8.87028358	     -7.70659190	      3.34830640	     22.15842644	     45.23678941	      0.00000000	      0.00000000
     14.94671429	     -3.50782771	     -4.12547175	      3.80848651	      0.88621234	      0.91553809	      0.45259941	     -4.80993570	      0.54502189	    -14.80350034	     19.11364657	     19.11364657	     19.05753328	      1.05018562	     -5.01936259	     28.92274197	     -5.25841864	     -1.83400976	     28.86609716	     28.86609716	      6.93467266	    -17.53718142	      8.83745241	     -7.12474805	      5.47500289	      4.26186619	     36.84152817	    -17.41745448	    -12.10478032	     76.99850014	     44.95082789	      0.00000000	      0.00000000	     -8.13095457	     -7.45162900	      3.38019981	     22.48071811	     45.24566417	      0.00000000	      0.00000000
     14.95914286	     -3.67282517	     -3.69611802	      3.50508820	      0.88682427	      0.91650039	      0.44927211	     -3.66911856	     -0.67816011	    -14.58531616	     21.86555301	     21.86555301	     17.50716254	     -0.12066762	     -9.34006612	     28.37526487	     -4.70586604	     -2.23452873	     28.84651275	     28.84651275	      7.84750714	    -17.54896788	      9.75298351	     -6.88979101	      5.10828121	      4.44030503	     35.40216814	    -17.41436562	    -12.35334430	     75.55421175	     45.03953537	      0.00000000	      0.00000000	     -7.34238754	     -7.48204263	      3.15512066	     23.25312262	     45.34719139	      0.00000000	      0.00000000
     14.97157143	     -3.62447746	     -3.53966826	      3.31206018	      0.88768688	      0.91804148	      0.44595878	     -2.83270963	     -1.53663790	    -14.42000354	     24.50935854	     24.50935854	     16.67400632	     -0.75128482	    -10.09432669	     27.50205613	     -4.43130489	     -2.55744540	     28.58054108	     28.58054108	      8.35219061	    -17.45515472	      9.56600491	     -6.89803272	      5.07674348	      4.37806384	     33.77334997	    -17.26202562	    -12.21624843	     74.59951270	     45.06363722	      0.00000000	      0.00000000	     -6.46048157	     -7.40973449	      3.10087819	     23.81252623	     45.37589513	      0.00000000	      0.00000000
     14.98400000	     -3.65348051	     -3.46119716	      3.13817060	      0.88839928	      0.91944350	      0.44273529	     -1.83534075	     -2.26077357	    -14.07233269	     27.05655889	     27.05655889	     14.39725896	     -2.46623617	    -14.14432598	     26.70253433	     -4.21850996	     -2.83112090	     28.24610466	     28.24610466	      8.73240512	    -17.40977030	      9.23830609	     -6.77783868	      5.14439773	      4.35765897	     32.22169718	    -17.05261856	    -12.37050914	     72.68421816	     45.14788343	      0.00000000	      0.00000000	     -5.80657922	     -7.41632062	      2.70678314	     25.32397764	     45.47051261	      0.00000000	      0.00000000
     14.99642857	     -3.65436751	     -3.27635786	      2.95542865	      0.88900638	      0.92087031	      0.43950517	     -0.52095172	     -3.23387914	    -13.84094646	     30.35697347	     30.35697347	     13.09405460	     -3.40166525	    -14.90194117	     25.79027322	     -3.91760306	     -3.25906244	     27.77002269	     27.77002269	      9.13207096	    -17.17883255	      9.05222710	     -6.77041225	      5.10751027	      4.15779618	     30.47636621	    -16.75003743	    -12.17598223	     71.66619975	     45.17006314	      0.00000000	      0.00000000	     -4.87782676	     -7.42139107	      2.62400917	     25.96018087	     45.50134482	      0.00000000	      0.00000000
     15.00885714	     -3.64161248	     -3.15189938	      2.80753880	      0.88944520	      0.92217278	      0.43638240	      0.93209469	     -4.10976482	    -13.49480820	     33.81448553	     33.81448553	     11.47672332	     -4.63566865	    -15.58368627	     24.89767017	     -3.66008552	     -3.56840746	     27.31606712	     27.31606712	      9.54674197	    -16.94164067	      8.80452038	     -6.79907727	      5.13691631	      4.04512771	     28.63053962	    -16.50405389	    -12.03778313	     70.39531894	     45.20158782	      0.00000000	      0.00000000	     -3.82192116	     -7.45684219	      2.51030374	     26.81447157	     45.53709729	      0.00000000	      0.00000000
